<svg width="14" height="22" viewBox="0 0 14 22" fill="none" xmlns="http://www.w3.org/2000/svg">
<path fill-rule="evenodd" clip-rule="evenodd" d="M9 10.25H7.5V4.25H8.25C9.90685 4.25 11.25 5.59315 11.25 7.25C11.25 7.66421 11.5858 8 12 8C12.4142 8 12.75 7.66421 12.75 7.25C12.7474 4.76579 10.7342 2.75258 8.25 2.75H7.5V1.25C7.5 0.835786 7.16421 0.5 6.75 0.5C6.33579 0.5 6 0.835786 6 1.25V2.75H5.25C2.76472 2.75 0.75 4.76472 0.75 7.25C0.75 9.73528 2.76472 11.75 5.25 11.75H6V17.75H4.5C2.84315 17.75 1.5 16.4069 1.5 14.75C1.5 14.3358 1.16421 14 0.75 14C0.335786 14 0 14.3358 0 14.75C0.0025835 17.2342 2.01579 19.2474 4.5 19.25H6V20.75C6 21.1642 6.33579 21.5 6.75 21.5C7.16421 21.5 7.5 21.1642 7.5 20.75V19.25H9C11.4853 19.25 13.5 17.2353 13.5 14.75C13.5 12.2647 11.4853 10.25 9 10.25ZM5.25 10.25C3.59315 10.25 2.25 8.90685 2.25 7.25C2.25 5.59315 3.59315 4.25 5.25 4.25H6V10.25H5.25ZM9 17.75H7.5V11.75H9C10.6569 11.75 12 13.0931 12 14.75C12 16.4069 10.6569 17.75 9 17.75Z" fill="#734D99"/>
</svg>
