<svg width="25" height="32" viewBox="0 0 25 32" fill="none" xmlns="http://www.w3.org/2000/svg">
<g clip-path="url(#clip0_239_133)">
<path fill-rule="evenodd" clip-rule="evenodd" d="M20.5 7.75H4C3.17157 7.75 2.5 8.42157 2.5 9.25V23.5C2.50014 23.7599 2.63483 24.0012 2.85597 24.1378C3.07712 24.2743 3.3532 24.2866 3.58562 24.1703L6.25 22.8381L8.91438 24.1703C9.12564 24.276 9.37436 24.276 9.58562 24.1703L12.25 22.8381L14.9144 24.1703C15.1256 24.276 15.3744 24.276 15.5856 24.1703L18.25 22.8381L20.9144 24.1703C21.1468 24.2866 21.4229 24.2743 21.644 24.1378C21.8652 24.0012 21.9999 23.7599 22 23.5V9.25C22 8.42157 21.3284 7.75 20.5 7.75ZM16.75 17.5H7.75C7.33579 17.5 7 17.1642 7 16.75C7 16.3358 7.33579 16 7.75 16H16.75C17.1642 16 17.5 16.3358 17.5 16.75C17.5 17.1642 17.1642 17.5 16.75 17.5ZM16.75 14.5H7.75C7.33579 14.5 7 14.1642 7 13.75C7 13.3358 7.33579 13 7.75 13H16.75C17.1642 13 17.5 13.3358 17.5 13.75C17.5 14.1642 17.1642 14.5 16.75 14.5Z" fill="#120D1C"/>
</g>
<defs>
<clipPath id="clip0_239_133">
<rect width="24" height="24" fill="white" transform="translate(0.25 4)"/>
</clipPath>
</defs>
</svg>
