<svg width="25" height="24" viewBox="0 0 25 24" fill="none" xmlns="http://www.w3.org/2000/svg">
<g clip-path="url(#clip0_239_42)">
<path fill-rule="evenodd" clip-rule="evenodd" d="M21.72 6.20156L13.47 1.6875C13.0219 1.43992 12.4781 1.43992 12.03 1.6875L3.78 6.20344C3.30014 6.46599 3.00124 6.96894 3 7.51594V16.4822C3.00124 17.0292 3.30014 17.5321 3.78 17.7947L12.03 22.3106C12.4781 22.5582 13.0219 22.5582 13.47 22.3106L21.72 17.7947C22.1999 17.5321 22.4988 17.0292 22.5 16.4822V7.51687C22.4998 6.96887 22.2007 6.4646 21.72 6.20156ZM12.75 3L20.2828 7.125L17.4909 8.65219L9.95813 4.52719L12.75 3ZM12.75 11.25L5.21719 7.125L8.39625 5.38406L15.9291 9.50906L12.75 11.25ZM21 16.4859L13.5 20.5912V12.5466L16.5 10.905V14.25C16.5 14.6642 16.8358 15 17.25 15C17.6642 15 18 14.6642 18 14.25V10.0837L21 8.44219V16.4822V16.4859Z" fill="#140D1C"/>
</g>
<defs>
<clipPath id="clip0_239_42">
<rect width="24" height="24" fill="white" transform="translate(0.75)"/>
</clipPath>
</defs>
</svg>
