<svg width="25" height="24" viewBox="0 0 25 24" fill="none" xmlns="http://www.w3.org/2000/svg">
<g clip-path="url(#clip0_239_257)">
<path fill-rule="evenodd" clip-rule="evenodd" d="M11.625 7.5H12V11.25H11.625C10.5895 11.25 9.75 10.4105 9.75 9.375C9.75 8.33947 10.5895 7.5 11.625 7.5ZM14.625 12.75H13.5V16.5H14.625C15.6605 16.5 16.5 15.6605 16.5 14.625C16.5 13.5895 15.6605 12.75 14.625 12.75ZM22.5 12C22.5 17.3848 18.1348 21.75 12.75 21.75C7.36522 21.75 3 17.3848 3 12C3 6.61522 7.36522 2.25 12.75 2.25C18.1324 2.25568 22.4943 6.61758 22.5 12ZM18 14.625C18 12.761 16.489 11.25 14.625 11.25H13.5V7.5H13.875C14.9105 7.5 15.75 8.33947 15.75 9.375C15.75 9.78921 16.0858 10.125 16.5 10.125C16.9142 10.125 17.25 9.78921 17.25 9.375C17.25 7.51104 15.739 6 13.875 6H13.5V5.25C13.5 4.83579 13.1642 4.5 12.75 4.5C12.3358 4.5 12 4.83579 12 5.25V6H11.625C9.76104 6 8.25 7.51104 8.25 9.375C8.25 11.239 9.76104 12.75 11.625 12.75H12V16.5H11.25C10.2145 16.5 9.375 15.6605 9.375 14.625C9.375 14.2108 9.03921 13.875 8.625 13.875C8.21079 13.875 7.875 14.2108 7.875 14.625C7.875 16.489 9.38604 18 11.25 18H12V18.75C12 19.1642 12.3358 19.5 12.75 19.5C13.1642 19.5 13.5 19.1642 13.5 18.75V18H14.625C16.489 18 18 16.489 18 14.625Z" fill="#140D1C"/>
</g>
<defs>
<clipPath id="clip0_239_257">
<rect width="24" height="24" fill="white" transform="translate(0.75)"/>
</clipPath>
</defs>
</svg>
