<svg width="25" height="32" viewBox="0 0 25 32" fill="none" xmlns="http://www.w3.org/2000/svg">
<g clip-path="url(#clip0_239_126)">
<path fill-rule="evenodd" clip-rule="evenodd" d="M21.72 10.2016L13.47 5.6875C13.0219 5.43992 12.4781 5.43992 12.03 5.6875L3.78 10.2034C3.30014 10.466 3.00124 10.9689 3 11.5159V20.4822C3.00124 21.0292 3.30014 21.5321 3.78 21.7947L12.03 26.3106C12.4781 26.5582 13.0219 26.5582 13.47 26.3106L21.72 21.7947C22.1999 21.5321 22.4988 21.0292 22.5 20.4822V11.5169C22.4998 10.9689 22.2007 10.4646 21.72 10.2016ZM12.75 7L20.2819 11.125L17.4909 12.6531L9.95813 8.52812L12.75 7ZM12.75 15.25L5.21812 11.125L8.39625 9.385L15.9281 13.51L12.75 15.25ZM4.5 12.4375L12 16.5419V24.5847L4.5 20.4831V12.4375ZM21 20.4794L13.5 24.5847V16.5456L16.5 14.9041V18.25C16.5 18.6642 16.8358 19 17.25 19C17.6642 19 18 18.6642 18 18.25V14.0828L21 12.4375V20.4784V20.4794Z" fill="#634F96"/>
</g>
<defs>
<clipPath id="clip0_239_126">
<rect width="24" height="24" fill="white" transform="translate(0.75 4)"/>
</clipPath>
</defs>
</svg>
