<svg width="25" height="24" viewBox="0 0 25 24" fill="none" xmlns="http://www.w3.org/2000/svg">
<g clip-path="url(#clip0_239_49)">
<path fill-rule="evenodd" clip-rule="evenodd" d="M7 9.75C7 9.33579 7.33579 9 7.75 9H16.75C17.1642 9 17.5 9.33579 17.5 9.75C17.5 10.1642 17.1642 10.5 16.75 10.5H7.75C7.33579 10.5 7 10.1642 7 9.75ZM7.75 13.5H16.75C17.1642 13.5 17.5 13.1642 17.5 12.75C17.5 12.3358 17.1642 12 16.75 12H7.75C7.33579 12 7 12.3358 7 12.75C7 13.1642 7.33579 13.5 7.75 13.5ZM22 5.25V19.5C21.9999 19.7599 21.8652 20.0012 21.644 20.1378C21.4229 20.2743 21.1468 20.2866 20.9144 20.1703L18.25 18.8381L15.5856 20.1703C15.3744 20.276 15.1256 20.276 14.9144 20.1703L12.25 18.8381L9.58562 20.1703C9.37436 20.276 9.12564 20.276 8.91438 20.1703L6.25 18.8381L3.58562 20.1703C3.3532 20.2866 3.07712 20.2743 2.85597 20.1378C2.63483 20.0012 2.50014 19.7599 2.5 19.5V5.25C2.5 4.42157 3.17157 3.75 4 3.75H20.5C21.3284 3.75 22 4.42157 22 5.25ZM20.5 5.25H4V18.2869L5.91437 17.3288C6.12564 17.223 6.37436 17.223 6.58563 17.3288L9.25 18.6619L11.9144 17.3288C12.1256 17.223 12.3744 17.223 12.5856 17.3288L15.25 18.6619L17.9144 17.3288C18.1256 17.223 18.3744 17.223 18.5856 17.3288L20.5 18.2869V5.25Z" fill="#734D99"/>
</g>
<defs>
<clipPath id="clip0_239_49">
<rect width="24" height="24" fill="white" transform="translate(0.25)"/>
</clipPath>
</defs>
</svg>
