<svg width="20" height="18" viewBox="0 0 20 18" fill="none" xmlns="http://www.w3.org/2000/svg">
<path fill-rule="evenodd" clip-rule="evenodd" d="M18.5 0.75H2C1.17157 0.75 0.5 1.42157 0.5 2.25V16.5C0.500139 16.7599 0.634828 17.0012 0.855974 17.1378C1.07712 17.2743 1.3532 17.2866 1.58562 17.1703L4.25 15.8381L6.91438 17.1703C7.12564 17.276 7.37436 17.276 7.58562 17.1703L10.25 15.8381L12.9144 17.1703C13.1256 17.276 13.3744 17.276 13.5856 17.1703L16.25 15.8381L18.9144 17.1703C19.1468 17.2866 19.4229 17.2743 19.644 17.1378C19.8652 17.0012 19.9999 16.7599 20 16.5V2.25C20 1.42157 19.3284 0.75 18.5 0.75ZM14.75 10.5H5.75C5.33579 10.5 5 10.1642 5 9.75C5 9.33579 5.33579 9 5.75 9H14.75C15.1642 9 15.5 9.33579 15.5 9.75C15.5 10.1642 15.1642 10.5 14.75 10.5ZM14.75 7.5H5.75C5.33579 7.5 5 7.16421 5 6.75C5 6.33579 5.33579 6 5.75 6H14.75C15.1642 6 15.5 6.33579 15.5 6.75C15.5 7.16421 15.1642 7.5 14.75 7.5Z" fill="#120D1C"/>
</svg>
